<?xml version="1.0" encoding="UTF-8"?>
<svg xmlns="http://www.w3.org/2000/svg" xmlns:xlink="http://www.w3.org/1999/xlink" width="27px" height="32px" viewBox="0 0 27 31" version="1.1">
<g id="surface1">
<path style=" stroke:none;fill-rule:nonzero;fill:rgb(100%,63.137257%,8.627451%);fill-opacity:1;" d="M 19.328125 23.199219 C 20.035156 22.503906 21.183594 22.503906 21.890625 23.203125 C 22.597656 23.902344 22.59375 25.03125 21.886719 25.726562 L 18.738281 28.8125 C 15.835938 31.664062 11.101562 31.703125 8.148438 28.910156 C 8.132812 28.894531 6.816406 27.625 2.480469 23.449219 C -0.40625 20.667969 -0.691406 16.21875 2.023438 13.363281 L 7.085938 8.035156 C 9.78125 5.199219 14.746094 4.890625 17.828125 7.339844 L 22.425781 10.992188 C 23.203125 11.613281 23.324219 12.734375 22.695312 13.5 C 22.070312 14.269531 20.929688 14.386719 20.148438 13.769531 L 15.550781 10.113281 C 13.941406 8.835938 11.121094 9.011719 9.730469 10.472656 L 4.667969 15.800781 C 3.347656 17.191406 3.492188 19.429688 5.015625 20.898438 C 8.199219 23.96875 10.652344 26.332031 10.65625 26.335938 C 12.191406 27.789062 14.675781 27.765625 16.179688 26.285156 Z M 19.328125 23.199219 "/>
<path style=" stroke:none;fill-rule:evenodd;fill:rgb(70.19608%,70.19608%,70.19608%);fill-opacity:1;" d="M 11.683594 20.109375 C 10.683594 20.109375 9.871094 19.308594 9.871094 18.324219 C 9.871094 17.339844 10.683594 16.542969 11.683594 16.542969 L 25.046875 16.542969 C 26.046875 16.542969 26.859375 17.339844 26.859375 18.324219 C 26.859375 19.308594 26.046875 20.109375 25.046875 20.109375 Z M 11.683594 20.109375 "/>
<path style=" stroke:none;fill-rule:evenodd;fill:rgb(0%,0%,0%);fill-opacity:1;" d="M 14.183594 0.566406 C 14.867188 -0.152344 16.015625 -0.191406 16.746094 0.480469 C 17.476562 1.152344 17.515625 2.28125 16.832031 3.003906 L 4.667969 15.800781 C 3.347656 17.191406 3.492188 19.429688 5.015625 20.898438 L 10.632812 26.3125 C 11.347656 27 11.359375 28.128906 10.660156 28.832031 C 9.960938 29.535156 8.8125 29.550781 8.097656 28.859375 L 2.480469 23.449219 C -0.40625 20.667969 -0.691406 16.21875 2.023438 13.363281 Z M 14.183594 0.566406 "/>
</g>
</svg>
